<svg width="111" height="48" viewBox="0 0 111 48" fill="none" xmlns="http://www.w3.org/2000/svg">
<path d="M108 24C108 26.3088 106.931 28.7529 104.494 31.2442C102.044 33.7491 98.3514 36.1423 93.5537 38.217C83.9681 42.3621 70.5163 45 55.5 45C40.4837 45 27.0319 42.3621 17.4463 38.217C12.6486 36.1423 8.9562 33.7491 6.50613 31.2442C4.06936 28.7529 3 26.3088 3 24C3 21.6912 4.06936 19.2471 6.50613 16.7558C8.9562 14.2509 12.6486 11.8577 17.4463 9.78301C27.0319 5.63789 40.4837 3 55.5 3C70.5163 3 83.9681 5.63789 93.5537 9.78301C98.3514 11.8577 102.044 14.2509 104.494 16.7558C106.931 19.2471 108 21.6912 108 24Z" fill="white" stroke="#2563EB" stroke-width="6"/>
<path d="M36.4585 18.2227L36.4596 18.2207C36.9015 17.3965 37.1146 16.4543 37.1146 15.4087C37.1146 14.0678 36.7769 12.8643 36.0903 11.8154C35.3992 10.7513 34.3766 9.93671 33.0544 9.35962C31.7233 8.77863 30.0905 8.5 28.176 8.5H19C18.1716 8.5 17.5 9.17157 17.5 10V33C17.5 33.8284 18.1716 34.5 19 34.5H28.8585C30.8112 34.5 32.4887 34.1914 33.8714 33.5503C35.2416 32.915 36.3014 32.0394 37.0227 30.9136C37.7484 29.7855 38.1074 28.5061 38.1074 27.0908C38.1074 25.7893 37.8264 24.6395 37.243 23.6616C36.6728 22.6978 35.9225 21.9396 34.9933 21.3981C34.5483 21.1364 34.0862 20.9328 33.6077 20.7876C33.9785 20.6229 34.3297 20.4289 34.6607 20.2053L34.6618 20.2046C35.4223 19.6881 36.0229 19.026 36.4585 18.2227ZM29.8812 23.9396L29.8835 23.9407C30.4379 24.2062 30.8468 24.5624 31.1305 25.0048C31.4129 25.4452 31.5602 25.9599 31.5602 26.5659C31.5602 27.3704 31.2762 27.982 30.7124 28.4504C30.1583 28.9027 29.2076 29.1787 27.754 29.1787H24.3734C24.0973 29.1787 23.8734 28.9549 23.8734 28.6787V24.0381C23.8734 23.7619 24.0973 23.5381 24.3734 23.5381H27.8781C28.6812 23.5381 29.3434 23.6786 29.8812 23.9396ZM30.2767 17.6926L30.2767 17.6926L30.2733 17.6973C29.9995 18.0879 29.619 18.399 29.1141 18.6263C28.6176 18.8455 28.0353 18.9614 27.3569 18.9614H24.3734C24.0973 18.9614 23.8734 18.7376 23.8734 18.4614V14.2725C23.8734 13.9963 24.0973 13.7725 24.3734 13.7725H27.4562C28.5757 13.7725 29.3615 14.0326 29.8857 14.4821L29.8857 14.4821L29.8881 14.4841C30.4226 14.9367 30.6915 15.5221 30.6915 16.2876C30.6915 16.8567 30.5468 17.3168 30.2767 17.6926ZM46.9772 33V10C46.9772 9.17157 46.3056 8.5 45.4772 8.5H42.1038C41.2754 8.5 40.6038 9.17157 40.6038 10V33C40.6038 33.8284 41.2754 34.5 42.1038 34.5H45.4772C46.3056 34.5 46.9772 33.8284 46.9772 33ZM50.3982 10V33C50.3982 33.8284 51.0697 34.5 51.8982 34.5H55.2716C56.1 34.5 56.7716 33.8284 56.7716 33V27.2574C56.7716 27.1405 56.8125 27.0273 56.8874 26.9374L58.4482 25.0632C58.6612 24.8075 59.0598 24.8273 59.2464 25.1028L65.1652 33.8412C65.4443 34.2532 65.9095 34.5 66.4072 34.5H70.3981C71.6075 34.5 72.3197 33.142 71.632 32.1471L63.6076 20.5381C63.4794 20.3526 63.4912 20.1041 63.6366 19.9317L71.1902 10.9665C72.0121 9.99102 71.3186 8.5 70.043 8.5H66.2223C65.776 8.5 65.3529 8.69873 65.0679 9.04219L56.7716 19.0411V10C56.7716 9.17157 56.1 8.5 55.2716 8.5H51.8982C51.0697 8.5 50.3982 9.17157 50.3982 10ZM74.4916 10V33C74.4916 33.8284 75.1632 34.5 75.9916 34.5H91.1667C91.9951 34.5 92.6667 33.8284 92.6667 33V30.6421C92.6667 29.8137 91.9951 29.1421 91.1667 29.1421H81.365C81.0889 29.1421 80.865 28.9182 80.865 28.6421V24.6729C80.865 24.3967 81.0889 24.1729 81.365 24.1729H90.2359C91.0644 24.1729 91.7359 23.5013 91.7359 22.6729V20.3149C91.7359 19.4865 91.0644 18.8149 90.2359 18.8149H81.365C81.0889 18.8149 80.865 18.5911 80.865 18.3149V14.3579C80.865 14.0818 81.0889 13.8579 81.365 13.8579H91.117C91.9455 13.8579 92.617 13.1863 92.617 12.3579V10C92.617 9.17157 91.9455 8.5 91.117 8.5H75.9916C75.1632 8.5 74.4916 9.17157 74.4916 10Z" fill="#2563EB" stroke="white"/>
<path d="M44.9039 37.8557C44.9077 37.7238 44.8673 37.6227 44.7828 37.5524C44.6993 37.4822 44.5792 37.4471 44.4226 37.4471C44.3125 37.4471 44.2152 37.4637 44.1307 37.4969C44.0472 37.5292 43.9798 37.5743 43.9285 37.6322C43.8773 37.6891 43.8455 37.7542 43.8331 37.8272C43.8227 37.887 43.8279 37.9393 43.8488 37.9839C43.8697 38.0285 43.9015 38.0664 43.9442 38.0978C43.9879 38.1291 44.0372 38.1552 44.0923 38.1761C44.1483 38.197 44.2052 38.2145 44.2631 38.2288L44.5251 38.2971C44.6295 38.3227 44.7292 38.3574 44.8241 38.401C44.9191 38.4438 45.0012 38.4988 45.0705 38.5662C45.1407 38.6327 45.192 38.7129 45.2242 38.8068C45.2565 38.9008 45.2617 39.0109 45.2399 39.1372C45.2114 39.308 45.1426 39.4585 45.0334 39.5885C44.9252 39.7176 44.7828 39.8187 44.6063 39.8918C44.4307 39.9639 44.2261 40 43.9926 40C43.7667 40 43.5759 39.9649 43.4202 39.8946C43.2646 39.8234 43.1507 39.7205 43.0785 39.5857C43.0073 39.4509 42.9845 39.2871 43.0102 39.0944H43.5299C43.5194 39.196 43.536 39.2805 43.5797 39.3479C43.6243 39.4153 43.6884 39.4656 43.7719 39.4988C43.8555 39.532 43.9523 39.5486 44.0624 39.5486C44.1772 39.5486 44.2812 39.5316 44.3742 39.4974C44.4672 39.4623 44.5432 39.4139 44.602 39.3522C44.6618 39.2895 44.6984 39.2164 44.7116 39.1329C44.7249 39.0579 44.714 38.9953 44.6789 38.9449C44.6438 38.8946 44.5892 38.8529 44.5152 38.8196C44.4421 38.7855 44.3547 38.7551 44.2532 38.7285L43.9371 38.6431C43.7083 38.5804 43.5346 38.4865 43.416 38.3612C43.2983 38.2359 43.2565 38.0688 43.2907 37.86C43.3191 37.6872 43.3908 37.5368 43.5057 37.4086C43.6205 37.2795 43.7643 37.1794 43.9371 37.1082C44.1098 37.0361 44.2987 37 44.5038 37C44.7107 37 44.8858 37.0361 45.0292 37.1082C45.1734 37.1804 45.2788 37.281 45.3452 37.4101C45.4126 37.5382 45.435 37.6868 45.4122 37.8557H44.9039Z" fill="#2563EB"/>
<path d="M48.624 37.4827L48.6981 37.0399H51.0246L50.9506 37.4827H50.0493L49.6392 39.9559H49.1152L49.5253 37.4827H48.624Z" fill="#2563EB"/>
<path d="M56.4683 38.532C56.417 38.8415 56.3159 39.1054 56.165 39.3237C56.015 39.5411 55.8318 39.7076 55.6154 39.8234C55.3999 39.9383 55.1679 39.9957 54.9192 39.9957C54.6581 39.9957 54.4341 39.935 54.2471 39.8135C54.0601 39.691 53.9253 39.5159 53.8428 39.2881C53.7611 39.0603 53.7469 38.7869 53.8 38.468C53.8513 38.1595 53.9519 37.8956 54.1019 37.6763C54.2519 37.457 54.4355 37.2895 54.6529 37.1737C54.8703 37.0579 55.1047 37 55.3563 37C55.6154 37 55.8375 37.0612 56.0226 37.1837C56.2087 37.3052 56.3425 37.4803 56.4241 37.7091C56.5067 37.9378 56.5214 38.2121 56.4683 38.532ZM55.9486 38.468C55.9837 38.2525 55.9804 38.0707 55.9386 37.9226C55.8978 37.7746 55.8252 37.663 55.7208 37.588C55.6164 37.5121 55.4877 37.4741 55.3349 37.4741C55.1698 37.4741 55.0169 37.5154 54.8765 37.598C54.7369 37.6796 54.6183 37.7992 54.5205 37.9568C54.4237 38.1144 54.3572 38.3061 54.3212 38.532C54.2832 38.7485 54.2856 38.9302 54.3283 39.0774C54.371 39.2245 54.445 39.3355 54.5504 39.4105C54.6558 39.4846 54.7844 39.5216 54.9363 39.5216C55.1005 39.5216 55.2523 39.4808 55.3919 39.3991C55.5314 39.3175 55.6496 39.1984 55.7464 39.0418C55.8442 38.8851 55.9116 38.6939 55.9486 38.468Z" fill="#2563EB"/>
<path d="M59.4979 39.9559L59.982 37.0399H61.0755C61.2995 37.0399 61.4813 37.0788 61.6208 37.1566C61.7603 37.2345 61.8576 37.3436 61.9127 37.4841C61.9677 37.6236 61.9796 37.7864 61.9483 37.9725C61.9179 38.1585 61.8515 38.3204 61.749 38.458C61.6474 38.5947 61.5131 38.7005 61.346 38.7755C61.1799 38.8505 60.9848 38.888 60.7608 38.888H59.982L60.056 38.4495H60.7651C60.8961 38.4495 61.0062 38.4314 61.0954 38.3953C61.1846 38.3583 61.2549 38.3047 61.3061 38.2345C61.3584 38.1633 61.393 38.0759 61.4101 37.9725C61.4262 37.869 61.4201 37.7807 61.3916 37.7076C61.364 37.6336 61.3114 37.5776 61.2335 37.5396C61.1566 37.5007 61.0527 37.4813 60.9217 37.4813H60.4376L60.0261 39.9559H59.4979ZM61.2236 38.6346L61.7262 39.9559H61.1367L60.6469 38.6346H61.2236Z" fill="#2563EB"/>
<path d="M64.8878 39.9559L65.3719 37.0399H67.2685L67.1944 37.4827H65.8261L65.6951 38.2743H66.9652L66.8912 38.7171H65.6211L65.4901 39.5131H66.8698L66.7958 39.9559H64.8878Z" fill="#2563EB"/>
</svg>
